<?xml version="1.0" encoding="UTF-8"?>
<svg width="1047px" height="56px" viewBox="0 0 1047 56" version="1.1" xmlns="http://www.w3.org/2000/svg" xmlns:xlink="http://www.w3.org/1999/xlink">
    <!-- Generator: Sketch 55 (78076) - https://sketchapp.com -->
    <title>数据统计</title>
    <desc>Created with Sketch.</desc>
    <defs>
        <linearGradient x1="50%" y1="0%" x2="50%" y2="81.3790703%" id="linearGradient-1">
            <stop stop-color="#274FC7" stop-opacity="0.690859921" offset="0%"></stop>
            <stop stop-color="#08152D" offset="100%"></stop>
        </linearGradient>
        <path d="M0,0 L1046,0 L1027.48082,53.3125452 C1026.92193,54.9214584 1025.40552,56 1023.7023,56 L20.6527221,56 L0,0 Z" id="path-2"></path>
        <filter x="-1.0%" y="-18.8%" width="102.0%" height="137.5%" filterUnits="objectBoundingBox" id="filter-3">
            <feMorphology radius="2" operator="erode" in="SourceAlpha" result="shadowSpreadInner1"></feMorphology>
            <feGaussianBlur stdDeviation="7.5" in="shadowSpreadInner1" result="shadowBlurInner1"></feGaussianBlur>
            <feOffset dx="0" dy="4" in="shadowBlurInner1" result="shadowOffsetInner1"></feOffset>
            <feComposite in="shadowOffsetInner1" in2="SourceAlpha" operator="arithmetic" k2="-1" k3="1" result="shadowInnerInner1"></feComposite>
            <feColorMatrix values="0 0 0 0 0.2   0 0 0 0 0.4   0 0 0 0 1  0 0 0 0.481916521 0" type="matrix" in="shadowInnerInner1"></feColorMatrix>
        </filter>
    </defs>
    <g id="环境感知态势" stroke="none" stroke-width="1" fill="none" fill-rule="evenodd">
        <g transform="translate(-436.000000, -97.000000)" id="数据统计">
            <g transform="translate(436.000000, 97.000000)">
                <g id="矩形备份-19">
                    <use fill="#08152D" fill-rule="evenodd" xlink:href="#path-2"></use>
                    <use fill="black" fill-opacity="1" filter="url(#filter-3)" xlink:href="#path-2"></use>
                    <path stroke="url(#linearGradient-1)" stroke-width="1" d="M0.71731872,0.5 L21.0012422,55.5 L1023.7023,55.5 C1025.19262,55.5 1026.51948,54.5562761 1027.0085,53.148477 L1045.29701,0.5 L0.71731872,0.5 Z" stroke-linejoin="square"></path>
                </g>
                <g id="编组-42" fill="#3366FF">
                    <polygon id="矩形" fill-opacity="0.6" points="0 0 10 0 30 55 20 55"></polygon>
                    <polygon id="矩形备份-20" fill-opacity="0.4" points="20 0 27 0 47 55 40 55"></polygon>
                    <polygon id="矩形备份-21" fill-opacity="0.2" points="35 0 42 0 62 55 55 55"></polygon>
                </g>
                <g id="编组-42备份" transform="translate(1016.000000, 27.500000) scale(-1, 1) translate(-1016.000000, -27.500000) translate(985.000000, 0.000000)" fill="#3366FF">
                    <polygon id="矩形" fill-opacity="0.6" points="0 0 10 0 30 55 20 55"></polygon>
                    <polygon id="矩形备份-20" fill-opacity="0.4" points="20 0 27 0 47 55 40 55"></polygon>
                    <polygon id="矩形备份-21" fill-opacity="0.2" points="35 0 42 0 62 55 55 55"></polygon>
                </g>
            </g>
        </g>
    </g>
</svg>